<?xml version="1.0" encoding="utf-8"?>
<!-- Generator: Adobe Illustrator 22.1.0, SVG Export Plug-In . SVG Version: 6.00 Build 0)  -->
<svg version="1.1" id="Layer_1" xmlns="http://www.w3.org/2000/svg" xmlns:xlink="http://www.w3.org/1999/xlink" x="0px" y="0px"
	 viewBox="0 0 115.9 115.9" style="enable-background:new 0 0 115.9 115.9;" xml:space="preserve" className="loader-logo">
<path className="logo-letter" d="M21.1,19.8c0.2-2.1,1.2-3.8,3-5.2c2.3-1.9,4.7-2.4,7-1.7c1.3,0.4,2.3,1,3,1.9l-2.9,2.3c-0.7-0.5-1.4-0.8-1.9-1
	c-1-0.2-2,0.1-3.1,0.9c-1,0.8-1.5,1.9-1.5,3.3c0.1,1.3,0.7,2.8,2,4.4c1.2,1.6,2.5,2.5,3.8,2.8c1.3,0.3,2.4,0,3.4-0.8
	c1-0.8,1.5-1.7,1.5-2.8c0-0.6-0.2-1.3-0.6-2.2l2.9-2.3c1,1.7,1.3,3.5,1,5.3c-0.3,1.8-1.2,3.3-2.9,4.6c-2,1.6-4.1,2.2-6.3,1.8
	c-2.2-0.4-4.2-1.7-6-4C21.7,24.6,20.9,22.2,21.1,19.8z"/>
<path className="logo-letter" d="M39.8,9.6L36.6,11l-1.3-3l3.2-1.4L39.8,9.6z M37.2,12.4l3.2-1.4l5.2,12.2l-3.2,1.4L37.2,12.4z"/>
<path className="logo-letter" d="M51,7.8c0,0,0.1,0,0.3-0.1l0.8,3.5c-0.2,0-0.4,0.1-0.6,0.1c-0.2,0-0.3,0.1-0.4,0.1c-1.4,0.3-2.2,1-2.4,2
	c-0.1,0.6-0.1,1.4,0.1,2.4l1.5,6.2l-3.4,0.8l-3-12.9L47,9.1l0.5,2.3c0.3-1,0.6-1.7,1-2.1c0.5-0.7,1.3-1.1,2.3-1.4
	C50.9,7.8,50.9,7.8,51,7.8z"/>
<path className="logo-letter" d="M62.3,12.6c-0.1-0.5-0.2-0.9-0.5-1.4c-0.4-0.5-1-0.8-1.8-0.8c-1.2,0-2,0.5-2.4,1.7c-0.2,0.6-0.4,1.4-0.4,2.5
	c0,1,0.1,1.8,0.3,2.4c0.4,1.1,1.2,1.7,2.3,1.7c0.8,0,1.4-0.2,1.7-0.6c0.4-0.4,0.6-1,0.7-1.7l3.6,0.1c-0.1,1.1-0.5,2-1.2,3
	c-1.1,1.5-2.8,2.2-4.9,2.2c-2.1-0.1-3.7-0.7-4.7-2c-1-1.3-1.4-2.9-1.4-5c0.1-2.3,0.7-4,1.8-5.3C56.4,8,58,7.4,59.9,7.4
	c1.7,0,3,0.4,4.1,1.2c1,0.8,1.6,2.1,1.8,4L62.3,12.6z"/>
<path className="logo-letter" d="M69.2,22.5l-3.4-0.8l4.3-17.4l3.4,0.8L69.2,22.5z"/>
<path className="logo-letter" d="M84.1,14.8c0.6,0.8,1,1.7,1.2,2.8c0.1,0.9,0,1.9-0.3,2.9c-0.2,0.6-0.5,1.4-1.1,2.4l-8.7-4.3c-0.5,1.2-0.6,2.3,0,3.1
	c0.3,0.5,0.8,1,1.5,1.3c0.7,0.4,1.4,0.5,2,0.3c0.3-0.1,0.7-0.2,1-0.5l3.2,1.6c-0.4,0.7-1.2,1.2-2.2,1.6c-1.6,0.6-3.4,0.5-5.3-0.5
	c-1.6-0.8-2.7-2-3.5-3.6c-0.7-1.6-0.5-3.5,0.6-5.7c1-2,2.4-3.3,4-3.9c1.6-0.6,3.3-0.4,5.1,0.5C82.6,13.4,83.4,14,84.1,14.8z
	 M78.1,15.2c-0.7,0.2-1.2,0.7-1.7,1.4l5.4,2.7c0.4-0.9,0.4-1.6,0.1-2.3c-0.3-0.7-0.8-1.2-1.5-1.6C79.5,15,78.7,14.9,78.1,15.2z"/>
<path className="logo-letter" d="M99,23c2,0.3,3.7,1.4,5,3.2c1.7,2.4,2.2,4.8,1.4,7.1c-0.5,1.3-1.1,2.2-2,2.9l-2.2-3.1c0.6-0.7,0.9-1.3,1.1-1.9
	c0.2-1,0-2-0.8-3.1c-0.8-1.1-1.8-1.6-3.2-1.6c-1.3,0-2.8,0.6-4.5,1.8c-1.6,1.2-2.6,2.4-3,3.6s-0.2,2.4,0.6,3.4
	c0.8,1.1,1.7,1.6,2.8,1.7c0.6,0,1.3-0.1,2.2-0.4l2.2,3c-1.8,0.9-3.6,1.1-5.3,0.8C91.5,40,90,39,88.8,37.3c-1.5-2.1-2-4.2-1.4-6.4
	c0.5-2.2,2-4.1,4.3-5.8C94.2,23.4,96.7,22.7,99,23z"/>
<path className="logo-letter" d="M97.6,53.7c-1.6-0.8-2.7-2.2-3.3-4.4c-0.6-2.2-0.3-4,0.8-5.5c1.1-1.4,2.5-2.4,4.4-2.9c1.9-0.5,3.6-0.3,5.2,0.4
	c1.6,0.7,2.7,2.2,3.3,4.4c0.6,2.2,0.3,4-0.8,5.5c-1.1,1.4-2.6,2.4-4.4,2.9C101,54.6,99.2,54.5,97.6,53.7z M98.8,50.6
	c0.8,0.4,1.9,0.4,3.2,0c1.3-0.3,2.2-0.8,2.8-1.5c0.6-0.7,0.7-1.6,0.5-2.5c-0.2-1-0.8-1.7-1.6-2c-0.8-0.4-1.9-0.4-3.2,0
	c-1.3,0.3-2.2,0.8-2.8,1.5c-0.6,0.7-0.7,1.6-0.5,2.5C97.4,49.6,97.9,50.2,98.8,50.6z"/>
<path className="logo-letter" d="M107.8,67.5c-0.8,0.8-2,1.1-3.7,1l-8.9-0.8l0.3-3.5l8,0.7c0.7,0.1,1.2,0,1.6-0.1c0.7-0.3,1.1-0.9,1.2-1.8
	c0.1-1.2-0.3-2-1.3-2.5c-0.5-0.3-1.2-0.5-2-0.5L96,59.2l0.3-3.5l13.2,1.2l-0.3,3.3l-1.9-0.2c0.6,0.5,1.1,1,1.4,1.4
	c0.5,0.8,0.7,1.7,0.6,2.8C109.1,65.6,108.6,66.7,107.8,67.5z"/>
<path className="logo-letter" d="M109.8,79.7c-0.1,0.2-0.2,0.4-0.3,0.7l-2.7-0.9c0.1-0.2,0.2-0.5,0.4-0.9c0.2-0.4,0.2-0.8,0-1s-0.3-0.4-0.6-0.5
	c-0.3-0.1-0.6-0.2-1.1-0.4l-0.8,2.1l-2.3-0.8l0.7-2.1l-10.1-3.6l1.2-3.2l10.1,3.6l0.7-1.8l2.3,0.8l-0.6,1.8l0.8,0.3
	c1.3,0.5,2.2,1,2.5,1.7c0.6,0.7,0.5,2-0.1,3.8C110,79.4,109.9,79.6,109.8,79.7z"/>
<path className="logo-letter" d="M98.9,88.7c-0.9,0.5-1.8,0.8-2.9,0.9c-1,0-1.9-0.2-2.9-0.6c-0.6-0.3-1.3-0.7-2.3-1.3l5.3-8.1c-1.1-0.7-2.2-0.8-3.1-0.4
	c-0.6,0.3-1.1,0.7-1.5,1.3c-0.4,0.7-0.6,1.3-0.5,1.9c0,0.3,0.2,0.7,0.4,1.1l-1.9,3c-0.6-0.5-1-1.3-1.3-2.4c-0.4-1.7-0.1-3.5,1.1-5.3
	c1-1.5,2.3-2.5,3.9-3c1.7-0.5,3.5-0.1,5.6,1.2c1.9,1.3,3.1,2.7,3.4,4.4c0.4,1.7,0,3.4-1.1,5C100.5,87.4,99.8,88.1,98.9,88.7z
	 M99.2,82.7c-0.2-0.7-0.6-1.3-1.2-1.9l-3.3,5c0.8,0.5,1.6,0.6,2.3,0.4s1.3-0.7,1.7-1.3C99.2,84.1,99.4,83.4,99.2,82.7z"/>
<path className="logo-letter" d="M89.8,98.8c0,0-0.1,0.1-0.2,0.2l-2.4-2.6c0.2-0.1,0.3-0.2,0.5-0.4c0.1-0.1,0.2-0.2,0.3-0.3c1-0.9,1.4-1.9,1.2-2.9
	c-0.2-0.6-0.6-1.2-1.3-2l-4.3-4.7l2.6-2.4l8.9,9.8l-2.5,2.2L91,94.1c0.2,1,0.3,1.8,0.2,2.3c-0.1,0.8-0.6,1.6-1.3,2.3
	C89.9,98.8,89.8,98.8,89.8,98.8z"/>
<path className="logo-letter" d="M79.1,104.5c-1,0.1-2-0.2-2.9-0.7c-0.8-0.4-1.6-1.1-2.2-1.9c-0.4-0.5-0.8-1.3-1.3-2.3l8.6-4.5c-0.7-1.2-1.5-1.8-2.5-1.8
	c-0.6,0-1.3,0.1-1.9,0.5c-0.7,0.4-1.2,0.8-1.4,1.4c-0.1,0.3-0.2,0.7-0.2,1.1l-3.1,1.7c-0.3-0.7-0.3-1.7,0-2.7c0.4-1.7,1.6-3.1,3.5-4
	c1.6-0.8,3.2-1.1,4.9-0.7c1.7,0.3,3.1,1.6,4.3,3.8c1.1,2,1.4,3.9,0.9,5.5c-0.5,1.7-1.6,2.9-3.3,3.8
	C81.1,104.1,80.1,104.4,79.1,104.5z M82.3,99.4c0.2-0.7,0.2-1.4-0.1-2.3l-5.3,2.8c0.5,0.8,1.1,1.3,1.8,1.4c0.7,0.2,1.4,0.1,2.2-0.3
	C81.6,100.6,82.1,100,82.3,99.4z"/>
<path className="logo-letter" d="M62.1,108.3c-1-0.6-1.6-1.7-1.9-3.3l-1.5-8.8l3.5-0.6l1.3,8c0.1,0.7,0.3,1.2,0.5,1.5c0.4,0.6,1.1,0.8,2.1,0.7
	c1.2-0.2,1.9-0.8,2.1-1.9c0.1-0.6,0.1-1.2,0-2l-1.2-7.1l3.4-0.6l2.2,13.1l-3.3,0.5l-0.3-1.9c-0.3,0.8-0.7,1.3-1,1.7
	c-0.6,0.6-1.5,1.1-2.5,1.2C64.2,109.1,63.1,108.9,62.1,108.3z"/>
<path className="logo-letter" d="M48.9,103.3c0,0.5,0.1,1,0.3,1.4c0.3,0.6,0.9,0.9,1.7,1.1c1.2,0.2,2-0.3,2.6-1.4c0.3-0.6,0.6-1.4,0.7-2.4
	c0.1-1,0.2-1.7,0-2.4c-0.2-1.2-0.9-1.8-2.1-2c-0.8-0.1-1.4,0-1.8,0.4c-0.4,0.4-0.7,0.9-0.9,1.6L46,99.1c0.2-1,0.8-2,1.6-2.8
	c1.3-1.3,3-1.8,5.1-1.5c2.1,0.3,3.6,1.2,4.4,2.6c0.8,1.4,1,3.1,0.7,5.1c-0.4,2.3-1.2,3.9-2.5,5c-1.3,1.1-2.9,1.5-4.9,1.2
	c-1.6-0.3-2.9-0.8-3.9-1.7c-0.9-0.9-1.3-2.3-1.2-4.2L48.9,103.3z"/>
<path className="logo-letter" d="M33.3,102c-0.7-0.8-1-1.7-1.2-2.8c-0.1-0.9,0-1.9,0.3-2.9c0.2-0.6,0.5-1.4,1.1-2.4l8.7,4.3c0.5-1.2,0.5-2.3,0-3.1
	c-0.3-0.5-0.8-1-1.5-1.3c-0.7-0.4-1.4-0.4-2-0.3c-0.3,0.1-0.7,0.3-1,0.5l-3.2-1.6c0.4-0.7,1.2-1.2,2.2-1.6c1.6-0.6,3.4-0.5,5.3,0.5
	c1.6,0.8,2.7,2,3.5,3.5c0.7,1.6,0.6,3.5-0.5,5.7c-1,2.1-2.3,3.4-4,3.9c-1.6,0.6-3.3,0.4-5.1-0.4C34.8,103.5,33.9,102.8,33.3,102z
	 M39.3,101.6c0.7-0.2,1.2-0.7,1.7-1.4l-5.4-2.6c-0.4,0.9-0.4,1.6-0.1,2.3c0.3,0.7,0.8,1.2,1.5,1.6C37.9,101.8,38.6,101.9,39.3,101.6
	z"/>
</svg>
